{
  "source": "C:\\Users\\Peter\\Desktop\\stuff\\MIUN\\quantitative_research\\video_compression\\videos\\BVI-HD\\BVI-HD_CDVL_videos\\ORIG\\FishAndRock_1920x1080_30fps.mp4",
  "output": "C:\\Users\\Peter\\Desktop\\stuff\\MIUN\\quantitative_research\\video_compression\\compressed_videos\\BVI-HD\\h264\\8\\FishAndRock_1920x1080_30fps_h264.mp4",
  "codec": "h264",
  "ok": "Input #0, mov,mp4,m4a,3gp,3g2,mj2, from 'C:\\Users\\Peter\\Desktop\\stuff\\MIUN\\quantitative_research\\video_compression\\videos\\BVI-HD\\BVI-HD_CDVL_videos\\ORIG\\FishAndRock_1920x1080_30fps.mp4':\n  Metadata:\n    major_brand     : isom\n    minor_version   : 512\n    compatible_brands: isomiso2avc1mp41\n    encoder         : Lavf54.28.101\n  Duration: 00:00:05.00, start: 0.000000, bitrate: 251564 kb/s\n  Stream #0:0[0x1](und): Video: h264 (High 4:4:4 Predictive) (avc1 / 0x31637661), yuv420p(progressive), 1920x1080, 251561 kb/s, 30 fps, 30 tbr, 30 tbn (default)\n    Metadata:\n      handler_name    : VideoHandler\n      vendor_id       : [0][0][0][0]\n[out#0/mp4 @ 000001c08bd09a40] Codec AVOption b:a (set bitrate (in bits/s)) has not been used for any stream. The most likely reason is either wrong type (e.g. a video option with no video streams) or that it is a private option of some decoder which was not actually used for any stream.\nStream mapping:\n  Stream #0:0 -> #0:0 (h264 (native) -> h264 (libx264))\nPress [q] to stop, [?] for help\n[libx264 @ 000001c08cae75c0] using cpu capabilities: MMX2 SSE2Fast SSSE3 SSE4.2 AVX FMA3 BMI2 AVX2\n[libx264 @ 000001c08cae75c0] profile High, level 5.0, 4:2:0, 8-bit\n[libx264 @ 000001c08cae75c0] 264 - core 165 r3222 b35605a - H.264/MPEG-4 AVC codec - Copyleft 2003-2025 - http://www.videolan.org/x264.html - options: cabac=1 ref=5 deblock=1:0:0 analyse=0x3:0x113 me=hex subme=8 psy=1 psy_rd=1.00:0.00 mixed_ref=1 me_range=16 chroma_me=1 trellis=2 8x8dct=1 cqm=0 deadzone=21,11 fast_pskip=1 chroma_qp_offset=-2 threads=18 lookahead_threads=3 sliced_threads=0 nr=0 decimate=1 interlaced=0 bluray_compat=0 constrained_intra=0 bframes=3 b_pyramid=2 b_adapt=1 b_bias=0 direct=3 weightb=1 open_gop=0 weightp=2 keyint=250 keyint_min=25 scenecut=40 intra_refresh=0 rc_lookahead=50 rc=cbr mbtree=1 bitrate=8000 ratetol=1.0 qcomp=0.60 qpmin=0 qpmax=69 qpstep=4 vbv_maxrate=8000 vbv_bufsize=8000 nal_hrd=none filler=0 ip_ratio=1.40 aq=1:1.00\nOutput #0, mp4, to 'C:\\Users\\Peter\\Desktop\\stuff\\MIUN\\quantitative_research\\video_compression\\compressed_videos\\BVI-HD\\h264\\8\\FishAndRock_1920x1080_30fps_h264.mp4':\n  Metadata:\n    major_brand     : isom\n    minor_version   : 512\n    compatible_brands: isomiso2avc1mp41\n    encoder         : Lavf62.3.100\n  Stream #0:0(und): Video: h264 (avc1 / 0x31637661), yuv420p(tv, progressive), 1920x1080, q=2-31, 8000 kb/s, 30 fps, 15360 tbn (default)\n    Metadata:\n      encoder         : Lavc62.11.100 libx264\n      handler_name    : VideoHandler\n      vendor_id       : [0][0][0][0]\n    Side data:\n      cpb: bitrate max/min/avg: 8000000/0/8000000 buffer size: 8000000 vbv_delay: N/A\nframe=    0 fps=0.0 q=0.0 size=       0KiB time=N/A bitrate=N/A speed=N/A elapsed=0:00:00.51    \nframe=    0 fps=0.0 q=0.0 size=       0KiB time=N/A bitrate=N/A speed=N/A elapsed=0:00:01.11    \nframe=    0 fps=0.0 q=0.0 size=       0KiB time=N/A bitrate=N/A speed=N/A elapsed=0:00:01.70    \nframe=    0 fps=0.0 q=0.0 size=       0KiB time=N/A bitrate=N/A speed=N/A elapsed=0:00:02.28    \nframe=    8 fps=2.8 q=27.0 size=     256KiB time=00:00:00.20 bitrate=10487.7kbits/s speed=0.07x elapsed=0:00:02.85    \nframe=   24 fps=7.1 q=26.0 size=     512KiB time=00:00:00.73 bitrate=5720.0kbits/s speed=0.216x elapsed=0:00:03.40    \nframe=   35 fps=8.8 q=27.0 size=     768KiB time=00:00:01.10 bitrate=5719.9kbits/s speed=0.277x elapsed=0:00:03.96    \nframe=   41 fps=8.9 q=27.0 size=    1024KiB time=00:00:01.23 bitrate=6801.9kbits/s speed=0.267x elapsed=0:00:04.62    \nframe=   51 fps=9.8 q=27.0 size=    1280KiB time=00:00:01.63 bitrate=6420.1kbits/s speed=0.313x elapsed=0:00:05.21    \nframe=   67 fps= 12 q=27.0 size=    1536KiB time=00:00:02.03 bitrate=6188.5kbits/s speed=0.352x elapsed=0:00:05.76    \nframe=   82 fps= 13 q=27.0 size=    2048KiB time=00:00:02.66 bitrate=6291.6kbits/s speed=0.421x elapsed=0:00:06.34    \nframe=   92 fps= 13 q=27.0 size=    2560KiB time=00:00:03.00 bitrate=6990.6kbits/s speed=0.433x elapsed=0:00:06.93    \nframe=  106 fps= 14 q=27.0 size=    2816KiB time=00:00:03.46 bitrate=6654.5kbits/s speed=0.465x elapsed=0:00:07.45    \nframe=  114 fps= 14 q=27.0 size=    3072KiB time=00:00:03.73 bitrate=6740.9kbits/s speed=0.466x elapsed=0:00:08.00    \nframe=  123 fps= 14 q=27.0 size=    3328KiB time=00:00:04.03 bitrate=6759.5kbits/s speed=0.473x elapsed=0:00:08.53    \nframe=  142 fps= 16 q=-1.0 size=    4096KiB time=00:00:04.66 bitrate=7190.3kbits/s speed=0.516x elapsed=0:00:09.04    \n[mp4 @ 000001c08bd114c0] Starting second pass: moving the moov atom to the beginning of the file\n[out#0/mp4 @ 000001c08bd09a40] video:4306KiB audio:0KiB subtitle:0KiB other streams:0KiB global headers:0KiB muxing overhead: 0.061033%\nframe=  150 fps= 16 q=-1.0 Lsize=    4308KiB time=00:00:04.93 bitrate=7154.3kbits/s speed=0.537x elapsed=0:00:09.19    \n[libx264 @ 000001c08cae75c0] frame I:1     Avg QP:22.79  size:172999\n[libx264 @ 000001c08cae75c0] frame P:39    Avg QP:23.12  size: 75251\n[libx264 @ 000001c08cae75c0] frame B:110   Avg QP:26.48  size: 11823\n[libx264 @ 000001c08cae75c0] consecutive B-frames:  1.3%  0.0%  8.0% 90.7%\n[libx264 @ 000001c08cae75c0] mb I  I16..4: 12.1% 80.5%  7.4%\n[libx264 @ 000001c08cae75c0] mb P  I16..4:  0.8%  3.7%  0.4%  P16..4: 50.9% 27.5% 12.2%  0.0%  0.0%    skip: 4.6%\n[libx264 @ 000001c08cae75c0] mb B  I16..4:  0.0%  0.3%  0.0%  B16..8: 53.1%  3.8%  0.7%  direct: 2.5%  skip:39.6%  L0:40.7% L1:48.7% BI:10.6%\n[libx264 @ 000001c08cae75c0] 8x8 transform intra:77.9% inter:71.5%\n[libx264 @ 000001c08cae75c0] direct mvs  spatial:92.7% temporal:7.3%\n[libx264 @ 000001c08cae75c0] coded y,uvDC,uvAC intra: 76.3% 80.8% 31.6% inter: 18.8% 26.0% 0.4%\n[libx264 @ 000001c08cae75c0] i16 v,h,dc,p: 15% 22% 31% 33%\n[libx264 @ 000001c08cae75c0] i8 v,h,dc,ddl,ddr,vr,hd,vl,hu: 17%  6%  5%  7% 15% 12% 16%  9% 13%\n[libx264 @ 000001c08cae75c0] i4 v,h,dc,ddl,ddr,vr,hd,vl,hu: 11%  5%  2%  8% 16% 13% 18% 10% 16%\n[libx264 @ 000001c08cae75c0] i8c dc,h,v,p: 42% 26% 17% 15%\n[libx264 @ 000001c08cae75c0] Weighted P-Frames: Y:35.9% UV:15.4%\n[libx264 @ 000001c08cae75c0] ref P L0: 58.6% 20.2% 13.6%  3.9%  3.2%  0.6%  0.0%\n[libx264 @ 000001c08cae75c0] ref B L0: 94.6%  4.1%  1.0%  0.3%\n[libx264 @ 000001c08cae75c0] ref B L1: 98.7%  1.3%\n[libx264 @ 000001c08cae75c0] kb/s:7053.36\n",
  "seconds": 9.666910648345947,
  "probe_out": {}
}